HIERARCHY
ROOT Hips
{
	OFFSET 0.00 0.00 0.00
	CHANNELS 6 Xposition Yposition Zposition Xrotation Yrotation Zrotation
	JOINT Spine
	{
		OFFSET 0.00000 1.70439 2.55658
		CHANNELS 3 Xrotation Yrotation Zrotation
		JOINT Spine1
		{
			OFFSET 0.00000 0.59193 3.35699
			CHANNELS 3 Xrotation Yrotation Zrotation
			JOINT Spine2
			{
				OFFSET 0.00000 0.29710 3.39581
				CHANNELS 3 Xrotation Yrotation Zrotation
				JOINT Spine3
				{
					OFFSET 0.00000 0.00000 3.40878
					CHANNELS 3 Xrotation Yrotation Zrotation
					JOINT Neck
					{
						OFFSET 0.00000 -1.27828 8.94804
						CHANNELS 3 Xrotation Yrotation Zrotation
						JOINT Head
						{
							OFFSET 0.00000 -0.81390 4.61586
							CHANNELS 3 Xrotation Yrotation Zrotation
							End Site
							{
								OFFSET 0.00000 0.00001 5.51796
							}
						}
					}
					JOINT RightShoulder
					{
						OFFSET -1.18875 -1.98124 6.41925
						CHANNELS 3 Xrotation Yrotation Zrotation
						JOINT RightArm
						{
							OFFSET -5.90412 0.00000 0.00000
							CHANNELS 3 Xrotation Yrotation Zrotation
							JOINT RightForeArm
							{
								OFFSET -11.94674 0.00000 0.00000
								CHANNELS 3 Xrotation Yrotation Zrotation
								JOINT RightHand
								{
									OFFSET -10.17720 0.00000 0.00000
									CHANNELS 3 Xrotation Yrotation Zrotation
									JOINT RightHandEnd
									{
										OFFSET -2.84518 0.00000 0.00000
										CHANNELS 3 Xrotation Yrotation Zrotation
										End Site
										{
											OFFSET -2.84518 0.00000 0.00000
										}
									}
									JOINT RightHandThumb1
									{
										OFFSET -1.13807 -1.89679 -0.75871
										CHANNELS 3 Yrotation Xrotation Zrotation
										End Site
										{
											OFFSET -2.74823 -0.73639 0.00000
										}
									}
								}
							}
						}
					}
					JOINT LeftShoulder
					{
						OFFSET 1.18875 -1.98124 6.41925
						CHANNELS 3 Xrotation Yrotation Zrotation
						JOINT LeftArm
						{
							OFFSET 5.90412 0.00000 0.00000
							CHANNELS 3 Xrotation Yrotation Zrotation
							JOINT LeftForeArm
							{
								OFFSET 11.94674 0.00000 0.00000
								CHANNELS 3 Xrotation Yrotation Zrotation
								JOINT LeftHand
								{
									OFFSET 10.17720 0.00000 0.00000
									CHANNELS 3 Xrotation Yrotation Zrotation
									JOINT LeftHandEnd
									{
										OFFSET 2.84518 0.00000 0.00000
										CHANNELS 3 Xrotation Yrotation Zrotation
										End Site
										{
											OFFSET 2.84518 0.00000 0.00000
										}
									}
									JOINT LeftHandThumb1
									{
										OFFSET 1.13807 -1.89679 -0.75871
										CHANNELS 3 Yrotation Xrotation Zrotation
										End Site
										{
											OFFSET 2.74823 -0.73639 0.00000
										}
									}
								}
							}
						}
					}
				}
			}
		}
	}
	JOINT RightUpLeg
	{
		OFFSET -3.52662 0.00000 -1.03025
		CHANNELS 3 Xrotation Yrotation Zrotation
		JOINT RightLeg
		{
			OFFSET 0.00001 0.00000 -17.80159
			CHANNELS 3 Xrotation Yrotation Zrotation
			JOINT RightFoot
			{
				OFFSET 0.00001 0.00000 -16.85992
				CHANNELS 3 Xrotation Yrotation Zrotation
				JOINT RightToeBase
				{
					OFFSET 0.00000 -5.42953 -1.97619
					CHANNELS 3 Xrotation Yrotation Zrotation
					End Site
					{
						OFFSET 0.00000 -2.85300 -0.00000
					}
				}
			}
		}
	}
	JOINT LeftUpLeg
	{
		OFFSET 3.52662 0.00000 -1.03025
		CHANNELS 3 Xrotation Yrotation Zrotation
		JOINT LeftLeg
		{
			OFFSET 0.00001 0.00000 -17.80159
			CHANNELS 3 Xrotation Yrotation Zrotation
			JOINT LeftFoot
			{
				OFFSET 0.00001 0.00000 -16.85992
				CHANNELS 3 Xrotation Yrotation Zrotation
				JOINT LeftToeBase
				{
					OFFSET 0.00000 -5.42953 -1.97619
					CHANNELS 3 Xrotation Yrotation Zrotation
					End Site
					{
						OFFSET 0.00000 -2.85300 -0.00000
					}
				}
			}
		}
	}
}
MOTION
Frames: 6
Frame Time: 0.008342
 2.4269 -9.2441 43.0444 3.3237 -0.2952 -174.0952 11.7446 -1.4679 -0.0457 4.7998 -0.4301 -0.2121 3.3067 -1.3752 -0.5282 0.3500 0.3489 0.1022 1.3636 0.1986 -0.5580 -2.7012 -0.4958 -1.0555 16.6613 -14.2494 12.0295 -20.5993 -34.6468 -2.9549 -0.0000 0.0001 54.4168 -10.2463 27.4413 2.5957 0.0000 -0.0000 0.0000 0.0000 -0.0000 -0.0000 13.0773 9.2825 -15.4645 -26.3844 43.8197 7.6892 -0.0000 -0.0000 -54.4420 -3.0928 -23.8694 1.3562 0.0000 -0.0000 -0.0000 0.0000 -0.0000 0.0000 -35.1878 7.7955 -13.3962 80.5862 0.0000 0.0000 -8.9338 -5.4382 -17.5351 -11.3980 0.0000 -0.0000 -35.4940 -1.8346 2.9970 85.0605 0.0000 0.0000 -5.8371 19.4314 -2.4270 -16.9824 0.0000 -0.0000
 2.4425 -9.3041 43.0564 3.0126 -0.2675 -174.1074 11.7137 -1.4473 0.0095 4.6630 -0.4289 -0.2089 3.1764 -1.3371 -0.4646 0.3977 0.3454 0.1161 1.0432 0.1999 -0.5830 -2.1677 -0.6534 -1.0594 17.0391 -14.5086 12.2984 -19.3283 -35.0170 -2.0397 -0.0000 0.0001 51.3822 -10.8761 26.2975 1.4775 0.0000 0.0000 0.0000 0.0000 -0.0000 -0.0000 13.3638 9.4673 -15.7486 -24.5963 44.6994 6.3548 -0.0000 -0.0000 -52.4735 -3.9300 -23.7483 2.1930 -0.0000 0.0000 -0.0000 -0.0000 -0.0000 0.0000 -36.8202 7.8082 -13.3933 84.2730 0.0000 0.0000 -10.5551 -4.9099 -17.7381 -11.7576 0.0000 -0.0000 -37.3815 -1.7751 3.4133 89.2860 0.0000 0.0000 -6.8921 19.8233 -2.6817 -17.3302 0.0000 -0.0000
 2.4585 -9.3488 43.0443 2.6268 -0.2285 -174.1334 11.5822 -1.4117 0.0550 4.4840 -0.3968 -0.1930 3.0371 -1.2977 -0.4221 0.4429 0.3474 0.1340 0.7499 0.1485 -0.6252 -1.6035 -0.8066 -1.0243 17.3626 -14.7464 12.4326 -18.1721 -35.5789 -1.2199 -0.0000 0.0000 48.3302 -11.6442 25.2542 0.2565 -0.0000 0.0000 -0.0000 0.0000 0.0000 0.0000 13.6439 9.6328 -15.8897 -22.7412 45.6602 4.9644 -0.0000 -0.0000 -50.4028 -5.0913 -23.6703 3.0984 -0.0000 0.0000 -0.0000 -0.0000 0.0000 0.0000 -38.2961 7.7977 -13.4399 87.3966 0.0000 0.0000 -12.0164 -4.3786 -17.8424 -12.0695 0.0000 -0.0000 -39.1239 -1.7333 3.8619 92.9952 0.0000 0.0000 -7.8096 20.1244 -2.9002 -17.5984 0.0000 -0.0000
 2.4758 -9.3746 43.0153 2.2295 -0.2035 -174.1584 11.3909 -1.3811 0.0929 4.2851 -0.3536 -0.1769 2.8933 -1.2520 -0.3933 0.4833 0.3492 0.1534 0.4975 0.0545 -0.6857 -1.0521 -0.9483 -0.9579 17.6104 -14.9777 12.4174 -17.1519 -36.3270 -0.5184 -0.0000 0.0000 45.3021 -12.5626 24.3555 -1.0715 0.0000 0.0000 0.0000 -0.0000 0.0000 0.0000 13.9070 9.7898 -15.8877 -20.8774 46.7034 3.5743 -0.0000 -0.0000 -48.2638 -6.6442 -23.5285 4.0659 -0.0000 0.0000 -0.0000 -0.0000 -0.0000 -0.0000 -39.5175 7.7473 -13.5573 89.8710 0.0000 0.0000 -13.3678 -3.8726 -17.8691 -12.3388 0.0000 -0.0000 -40.6362 -1.7306 4.2955 96.1139 0.0000 0.0000 -8.6454 20.3517 -3.0897 -17.8146 0.0000 -0.0000
 2.4921 -9.3802 42.9741 1.8272 -0.1542 -174.1794 11.1249 -1.3102 0.1185 4.0914 -0.3086 -0.1570 2.7510 -1.2107 -0.3852 0.5184 0.3570 0.1692 0.2940 -0.0768 -0.7598 -0.5418 -1.0702 -0.8674 17.7731 -15.2072 12.2738 -16.3446 -37.2490 -0.0280 -0.0000 0.0000 42.3628 -13.6145 23.6222 -2.5400 0.0000 -0.0000 -0.0000 -0.0000 0.0000 0.0000 14.1539 9.9428 -15.7503 -19.1129 47.8271 2.2787 -0.0000 -0.0000 -46.0985 -8.6433 -23.2290 5.0907 0.0000 -0.0000 -0.0000 -0.0000 -0.0000 0.0000 -40.4718 7.7046 -13.7072 91.6625 0.0000 0.0000 -14.6556 -3.4293 -17.8300 -12.5802 0.0000 -0.0000 -41.8891 -1.7247 4.7203 98.5775 0.0000 0.0000 -9.4399 20.5207 -3.2414 -18.0116 0.0000 -0.0000
 2.5097 -9.3617 42.9265 1.5146 -0.1382 -174.1725 10.8658 -1.2595 0.1328 3.9048 -0.2834 -0.1417 2.6243 -1.1551 -0.3975 0.5426 0.3571 0.1867 0.1545 -0.2350 -0.8479 -0.1050 -1.1667 -0.7657 17.8715 -15.4443 11.9996 -15.8371 -38.3182 0.1937 -0.0000 0.0000 39.5615 -14.8016 23.0848 -4.1554 0.0000 -0.0000 0.0000 -0.0000 -0.0000 0.0000 14.3984 10.0983 -15.5026 -17.5988 49.0221 1.2045 -0.0000 -0.0000 -43.9529 -11.1269 -22.6996 6.1819 0.0000 0.0000 0.0000 0.0000 -0.0000 -0.0000 -41.0313 7.6257 -13.9365 92.7151 0.0000 0.0000 -15.9017 -3.0814 -17.7527 -12.8074 0.0000 -0.0000 -42.7843 -1.7601 5.0588 100.3602 0.0000 0.0000 -10.2229 20.6483 -3.3661 -18.2134 0.0000 -0.0000
